<svg width="157" height="100" viewBox="0 0 157 100" fill="none" xmlns="http://www.w3.org/2000/svg">
<path opacity="0.3" d="M87.3021 98.0094L152.107 60.9752C157.077 58.0203 156.48 53.0956 150.715 49.7467L89.6876 14.8794C83.9227 11.5306 74.9773 11.1366 70.0076 14.0915L5.20279 51.1257C0.233097 54.0805 0.82946 59.0053 6.5943 62.3541L67.4233 97.2214C73.387 100.57 82.1336 100.964 87.3021 98.0094Z" fill="black"/>
<path d="M68.4183 84.5889H70.2426C70.648 84.3867 71.0534 83.9823 71.4588 83.7801C75.5129 81.556 81.7967 81.556 85.8508 83.7801C86.4589 84.1845 86.8643 84.3867 87.2697 84.7911H88.6886V92.6765V92.8787C88.4859 94.294 87.6751 95.7094 85.6481 96.9225C81.594 99.1466 75.3102 99.1466 71.2561 96.9225C69.2291 95.7094 68.2156 94.0918 68.4183 92.6765V84.5889Z" fill="url(#paint0_linear)"/>
<path d="M71.4583 80.545C75.5123 78.3209 81.7962 78.3209 85.8502 80.545C89.9043 82.7691 89.7016 86.6107 85.8502 88.8348C81.7962 91.0589 75.5123 91.0589 71.4583 88.8348C67.4042 86.6107 67.4042 82.7691 71.4583 80.545Z" fill="#C7C7C7"/>
<path d="M7.31989 50.3449H9.14422C9.54963 50.1427 9.95504 49.7383 10.3604 49.5361C14.4145 47.312 20.6983 47.312 24.7524 49.5361C25.3605 49.9405 25.7659 50.1427 26.1713 50.5471H27.5902V58.4325V58.6347C27.3875 60.05 26.5767 61.4653 24.5497 62.6785C20.4956 64.9026 14.2118 64.9026 10.1577 62.6785C8.1307 61.4653 7.11719 59.8478 7.31989 58.4325V50.3449Z" fill="#04244D"/>
<path d="M10.3601 45.6947C14.4142 43.4706 20.698 43.4706 24.7521 45.6947C28.8062 47.9188 28.6035 51.7604 24.7521 53.9845C20.698 56.2086 14.4142 56.2086 10.3601 53.9845C6.30606 51.7604 6.30606 47.9188 10.3601 45.6947Z" fill="#C7C7C7"/>
<path d="M131.557 48.852H133.382C133.787 48.6498 134.192 48.2454 134.598 48.0432C138.652 45.8191 144.936 45.8191 148.99 48.0432C149.598 48.4476 150.003 48.6498 150.409 49.0541H151.828V56.9396V57.1418C151.625 58.5571 150.814 59.9724 148.787 61.1856C144.733 63.4097 138.449 63.4097 134.395 61.1856C132.368 59.9724 131.354 58.3549 131.557 56.9396V48.852Z" fill="url(#paint1_linear)"/>
<path d="M134.597 45.01C138.651 42.7859 144.935 42.7859 148.989 45.01C153.043 47.2341 152.84 51.0757 148.989 53.2998C144.935 55.5239 138.651 55.5239 134.597 53.2998C130.543 51.0757 130.543 47.2341 134.597 45.01Z" fill="#C7C7C7"/>
<path d="M87.2701 94.0918L152.541 56.4844C157.608 53.6538 157 48.3968 151.122 45.1618L89.7026 9.77846C83.8242 6.34123 74.9052 5.93685 69.8376 8.9697L4.76979 46.5771C-0.297797 49.4078 0.310313 54.6647 6.18872 57.8998L67.4052 93.2831C73.2836 96.7203 82.2025 96.9225 87.2701 94.0918Z" fill="#024AA6"/>
<path d="M0.310105 45.3638L10.0399 40.3091L69.8374 5.93674C74.905 2.90389 84.0267 3.30827 89.9051 6.7455L149.905 41.32L157 44.9595V49.2055C157 51.0252 155.784 52.8449 153.554 54.058L87.4726 92.0698C82.405 95.1027 73.2834 94.6983 67.405 91.261L5.17499 55.4734C1.72903 53.4515 0.107401 51.0252 0.310105 48.5989V45.3638Z" fill="#0165E5"/>
<path d="M153.351 50.6209L122.54 68.4136L87.4727 88.6327C82.4051 91.6655 73.2835 91.2611 67.4051 87.8239L5.17507 51.834C-0.703334 48.3968 -1.51415 43.1398 3.75614 40.3092L6.59399 38.6917L37.8103 20.6967L70.2754 2.26775C75.343 -0.765103 83.824 -0.33108 89.7024 3.10616L151.73 38.8938C152.135 39.096 152.541 39.2982 152.743 39.5004C158.014 42.9377 158.216 47.7902 153.351 50.6209Z" fill="#A7CCFB"/>
<path d="M151.122 48.1945L120.108 65.9873L87.6756 84.791C82.8107 87.6216 74.0945 87.2173 68.4188 83.9822L8.62121 49.6099C3.14822 46.3748 2.3374 41.5223 6.59418 38.6916C6.79688 38.4894 6.99959 38.4894 7.20229 38.2872L38.0132 20.4945L70.6485 1.89296C75.5134 -0.937708 84.2296 -0.533327 89.9053 2.70172L149.703 37.0741C151.122 37.8828 152.135 38.6916 152.946 39.7025C155.581 42.5332 154.973 45.9704 151.122 48.1945Z" fill="#FAFCFF"/>
<path d="M67.669 22.0724L57.276 28.2458L44.1567 36.1469C43.0962 36.8083 41.3684 36.8444 40.0958 35.9625L33.3086 31.7734C32.036 31.112 31.8238 30.0096 33.0965 29.3482L45.8226 21.6314L56.4276 15.2376C57.4881 14.5762 59.3971 14.5762 60.6697 15.4581L67.669 19.6471C68.7295 20.3086 68.7295 21.411 67.669 22.0724Z" fill="#6DABF8"/>
<path d="M44.5499 35.8922L65.548 23.325C66.6085 22.6635 66.3964 21.5611 65.3359 20.8997L59.1849 17.1516C57.9123 16.4902 56.2155 16.2697 55.155 16.9311L34.1569 29.4983C33.0964 30.1598 33.3085 31.2622 34.3691 31.9236L40.52 35.6717C41.5805 36.3332 43.4894 36.5536 44.5499 35.8922Z" fill="#E6F0FE"/>
<path d="M12.6132 39.2849C16.5815 37.1078 22.7324 37.1078 26.7007 39.2849C30.669 41.4619 30.4706 45.2223 26.7007 47.3993C22.7324 49.5764 16.5815 49.5764 12.6132 47.3993C8.64489 45.2223 8.64489 41.4619 12.6132 39.2849Z" fill="#01387F"/>
<path d="M72.961 3.94114C77.0393 1.6775 83.432 1.54254 87.6023 3.63202C91.7725 5.7215 91.6457 9.48536 87.7736 11.7446C83.6952 14.0083 77.3025 14.1432 73.1322 12.0538C68.962 9.96428 68.8826 6.20477 72.961 3.94114Z" fill="#02387E"/>
<path d="M10.035 41.7244H11.8593C12.2647 41.5222 12.6701 41.1178 13.0755 40.9156C17.1296 38.6915 23.4134 38.6915 27.4675 40.9156C28.0756 41.32 28.481 41.5222 28.8864 41.9266L30.4217 41.7009C30.4217 41.7009 30.4217 42.5147 30.4217 42.7169C30.4217 42.7169 30.4455 43.2272 30.4217 43.3373C29.9922 45.3254 29.0258 46.021 27.2648 47.1835C23.2107 49.4076 16.9269 49.4076 12.8728 47.1835C10.8458 45.9704 9.83227 44.3529 10.035 42.9375V41.7244Z" fill="url(#paint2_linear)"/>
<path d="M13.0752 37.4785C17.1293 35.2544 23.4131 35.2544 27.4672 37.4785C31.5212 39.7026 31.3185 43.5442 27.4672 45.7683C23.4131 47.9924 17.1293 47.9924 13.0752 45.7683C9.02115 43.5442 9.02115 39.9048 13.0752 37.4785Z" fill="white"/>
<path d="M13.075 37.4785C16.9264 35.2544 23.2102 35.2544 27.0616 37.4785C30.913 39.7026 30.913 43.342 27.0616 45.5661C23.2102 47.7902 16.9264 47.7902 13.075 45.5661C9.22368 43.5442 9.22368 39.7026 13.075 37.4785Z" fill="url(#paint3_linear)"/>
<path d="M70.3096 6.1509H72.134C72.5394 5.94871 72.9448 5.54433 73.3502 5.34214C77.4043 3.11805 83.6881 3.11805 87.7421 5.34214C88.3503 5.74652 88.7557 5.94871 89.1611 6.35309L90.6964 6.12738C90.6964 6.12738 90.6964 6.94125 90.6964 7.14344C90.6964 7.14344 90.7202 7.65375 90.6964 7.76378C90.2668 9.75191 89.3005 10.4475 87.5394 11.61C83.4854 13.8341 77.2016 13.8341 73.1475 11.61C71.1205 10.3969 70.1069 8.77938 70.3096 7.36405V6.1509Z" fill="url(#paint4_linear)"/>
<path d="M73.3499 1.90513C77.4039 -0.318963 83.6878 -0.318963 87.7418 1.90513C91.7959 4.12922 91.5932 7.97084 87.7418 10.1949C83.6878 12.419 77.4039 12.419 73.3499 10.1949C69.2958 7.97084 69.2958 4.33141 73.3499 1.90513Z" fill="white"/>
<path d="M73.3502 1.90513C77.2016 -0.318963 83.4854 -0.318963 87.3367 1.90513C91.1881 4.12922 91.1881 7.76865 87.3367 9.99274C83.4854 12.2168 77.2016 12.2168 73.3502 9.99274C69.4988 7.97084 69.4988 4.12922 73.3502 1.90513Z" fill="url(#paint5_linear)"/>
<path fill-rule="evenodd" clip-rule="evenodd" d="M59.6565 47.188C58.4668 48.3954 55.0527 48.507 52.0314 47.4377C49.0095 46.368 47.5239 44.5234 48.7131 43.3166C49.9022 42.1087 53.3158 41.9976 56.3377 43.0668C59.3595 44.1366 60.8456 45.9812 59.6565 47.188ZM58 49.756C56.2012 52.483 52.886 59.716 60.4814 63.1422C77.7121 70.9167 96.9797 69.3507 96.9797 69.3507C101.602 69.267 106.405 68.4 108.284 65.5515C110.288 62.5137 107.669 59.7145 103.345 58.1869C98.9465 56.6333 96.8136 56.3597 94.7434 56.0941C91.1569 55.634 87.7586 55.1981 73.0954 48.1722C73.4928 48.4227 73.1192 48.2614 72.4222 47.9605C71.445 47.5387 69.8323 46.8425 68.8181 46.6223C63.7671 45.5234 60.1765 46.4566 58 49.756ZM50.7341 51.9328C53.0822 52.397 55.438 52.0352 55.9953 51.124C56.551 50.2135 55.0991 49.0985 52.751 48.6343C50.4024 48.1702 48.0466 48.5326 47.4899 49.4432C46.9326 50.3538 48.3855 51.4687 50.7341 51.9328ZM54.1598 54.7552C53.7122 55.4882 51.7253 55.7607 49.7228 55.3644C47.7199 54.9692 46.4592 54.0541 46.9074 53.3221C47.3546 52.5902 49.3415 52.3171 51.3434 52.713C53.3469 53.1087 54.6071 54.0232 54.1598 54.7552ZM50.1173 59.0575C52.1198 59.4538 54.1072 59.1813 54.5549 58.4487C55.0021 57.7168 53.7424 56.8017 51.7395 56.4059C49.737 56.0096 47.7502 56.2826 47.3019 57.0146C46.8542 57.7466 48.1149 58.6622 50.1173 59.0575ZM55.7029 61.8596C55.3315 62.467 53.6853 62.6923 52.0253 62.3646C50.3649 62.0369 49.3195 61.2788 49.6913 60.6708C50.0622 60.0645 51.7094 59.8375 53.3694 60.1663C55.0299 60.4946 56.0748 61.2526 55.7029 61.8596Z" fill="#E1EDFE"/>
<path fill-rule="evenodd" clip-rule="evenodd" d="M96.9835 25.5659C98.1661 25.3128 98.4029 24.1896 97.512 23.0558C96.6217 21.922 94.94 21.208 93.758 21.46C92.5743 21.713 92.3364 22.8362 93.2273 23.97C94.1187 25.1039 95.7998 25.8178 96.9835 25.5659ZM91.8459 23.6229C92.8904 24.9531 92.5446 26.2847 91.0733 26.5987C89.6014 26.9128 87.5621 26.0893 86.5181 24.7601C85.4736 23.4309 85.8195 22.0983 87.2908 21.7848C88.7621 21.4707 90.802 22.2937 91.8459 23.6229ZM84.8554 28.6655C86.7548 27.9943 86.5613 26.0625 84.4219 24.3518C82.2836 22.6407 79.0109 21.7979 77.111 22.4696C75.2117 23.1403 75.4057 25.0721 77.544 26.7833C79.6824 28.4939 82.9555 29.3367 84.8554 28.6655ZM88.9936 27.7318C93.3851 26.7175 105.193 24.8509 111.813 29.1528C126.832 38.9121 127.7 51.4522 127.7 51.4522C128.077 54.0683 127.155 56.7838 122.569 57.8435C117.677 58.9732 114.197 57.5702 111.141 55.1215C108.059 52.652 107.167 51.2282 106.267 49.7903C104.687 47.2659 103.079 44.6982 89.5427 36.3523C90.0093 36.5777 89.6949 36.3654 89.1092 35.97L89.1092 35.97C88.2892 35.4163 86.9376 34.5037 86.4534 33.9305C84.0376 31.0707 83.6813 28.9596 88.9936 27.7318ZM103.776 23.2835C104.666 24.4173 104.429 25.5411 103.247 25.7936C102.063 26.0456 100.382 25.3311 99.491 24.1978C98.6001 23.0645 98.8375 21.9407 100.021 21.6882C101.204 21.4357 102.885 22.1497 103.776 23.2835ZM109.118 26.4479C110.098 26.2385 110.295 25.3061 109.557 24.3672C108.818 23.4272 107.424 22.8345 106.444 23.0439C105.463 23.2538 105.266 24.1846 106.005 25.1251C106.743 26.0646 108.137 26.6568 109.118 26.4479Z" fill="#E1EDFE"/>
<path d="M47.3663 30.2165L45.5806 29.1201L46.6054 28.4824C47.1179 28.1636 47.6928 28.2297 48.2669 28.5524C48.5219 28.7456 48.6493 28.8743 48.7125 29.0669C48.7119 29.2593 48.5836 29.3871 48.3273 29.5786L47.3663 30.2165ZM44.6239 28.5396L42.9657 27.5077L43.7343 27.0615C44.0545 26.8703 44.3104 26.807 44.63 26.8081C44.8856 26.809 45.205 26.8743 45.4599 27.0676C45.9701 27.39 45.969 27.7106 45.4563 28.0936L44.6239 28.5396ZM42.5861 26.4162L40.7288 27.4998L47.3618 31.499L49.4754 30.2239C50.052 29.8412 50.3729 29.4575 50.3743 29.0728C50.3756 28.688 50.0574 28.3021 49.4196 27.9151C49.0368 27.7214 48.654 27.5277 48.2069 27.462C47.7597 27.3963 47.376 27.4591 47.0562 27.5221C47.1847 27.3301 47.1856 27.0736 47.0584 26.8808C46.9315 26.6239 46.7405 26.4308 46.4216 26.2373C45.8475 25.9146 45.2088 25.7841 44.5697 25.7819C43.9305 25.7797 43.2905 26.0339 42.5861 26.4162Z" fill="#3287F3"/>
<path d="M51.2327 21.2523L49.7596 22.1449L53.198 25.8122L47.0054 23.8025L45.5325 24.631L52.1655 28.6302L53.3184 27.9288L51.4685 26.8963L48.2792 25.0895L54.6633 27.164L55.4318 26.7178L51.9301 22.8579L54.9273 24.7923L56.713 25.8887L57.8657 25.2515L51.2327 21.2523Z" fill="#3287F3"/>
<path d="M53.346 19.9772L52.2573 20.6147L58.8903 24.6138L59.9791 23.9764L53.346 19.9772Z" fill="#3287F3"/>
<defs>
<linearGradient id="paint0_linear" x1="69.5795" y1="94.9089" x2="87.6171" y2="94.3581" gradientUnits="userSpaceOnUse">
<stop stop-color="#04244D"/>
<stop offset="1" stop-color="#024AA6"/>
</linearGradient>
<linearGradient id="paint1_linear" x1="151.279" y1="58.1882" x2="142.646" y2="60.6053" gradientUnits="userSpaceOnUse">
<stop stop-color="#024AA6"/>
<stop offset="1" stop-color="#04244D"/>
</linearGradient>
<linearGradient id="paint2_linear" x1="30.4057" y1="43.9167" x2="10.095" y2="43.9167" gradientUnits="userSpaceOnUse">
<stop offset="0.0677083" stop-color="#83B8FC"/>
<stop offset="0.532544" stop-color="#519BFB"/>
<stop offset="1" stop-color="#1F7FF9"/>
</linearGradient>
<linearGradient id="paint3_linear" x1="37.0114" y1="45.1285" x2="10.1865" y2="39.3801" gradientUnits="userSpaceOnUse">
<stop stop-color="#F5F9FF"/>
<stop offset="1" stop-color="#CEE3FD"/>
</linearGradient>
<linearGradient id="paint4_linear" x1="90.6803" y1="8.34325" x2="70.3696" y2="8.34325" gradientUnits="userSpaceOnUse">
<stop offset="0.0677083" stop-color="#83B8FC"/>
<stop offset="0.532544" stop-color="#519BFB"/>
<stop offset="1" stop-color="#1F7FF9"/>
</linearGradient>
<linearGradient id="paint5_linear" x1="97.2865" y1="9.55514" x2="70.4617" y2="3.80674" gradientUnits="userSpaceOnUse">
<stop stop-color="#FAFAFA"/>
<stop offset="1" stop-color="#CCE3FF"/>
</linearGradient>
</defs>
</svg>
